# xmcd
#
# Track frame offsets:
#	150
#	13394
#	27696
#	40552
#	53012
#	64691
#	78204
#	90859
#	104768
#	117447
#	130459
#	141484
#	154424
#	167235
#	180337
#	193596
#	205480
#	217165
#	229052
#	241132
#	254035
#	265585
#	277950
#	289812
#	302157
#
# Disc length: 4195 seconds
#
# Revision: 3
# Processed by: cddbd v1.5.2PL0 Copyright (c) Steve Scherf et al.
# Submitted via: audiograbber 1.83.01
#
DISCID=77106119
DTITLE=Roy Acuff - Great Speckled Bird
DYEAR=2004
DGENRE=Country
TTITLE0=Great Speckled Bird
TTITLE1=My Mountain Home Sweet Home
TTITLE2=Wabash Cannonball
TTITLE3=Freight Train Blues
TTITLE4=You've Gotta See Mama Tonight
TTITLE5=Gonna Have A Big Time Tonight
TTITLE6=Yes Sir That's My Baby
TTITLE7=You're The Only Star In My Blue Heaven
TTITLE8=Charming Betsy
TTITLE9=New Greenback Dollar
TTITLE10=Steamboat Whistle Blues
TTITLE11=Doin' It The Old Fashioned Way
TTITLE12=An Old Three Room Shack
TTITLE13=Steel Guitar Blues
TTITLE14=Sad Memories
TTITLE15=Red Lips
TTITLE16=What Would You Do With Gabriel's Trumpet
TTITLE17=Shout Oh Lulu
TTITLE18=Blue Ridge Sweetheart
TTITLE19=One Old Shirt
TTITLE20=Bonnie Blue Eyes
TTITLE21=Automobile of Life
TTITLE22=Smokey Mountain Rag
TTITLE23=That Beatiful Picture
TTITLE24=Honky Tonk Mamas
EXTD=
EXTT0=
EXTT1=
EXTT2=
EXTT3=
EXTT4=
EXTT5=
EXTT6=
EXTT7=
EXTT8=
EXTT9=
EXTT10=
EXTT11=
EXTT12=
EXTT13=
EXTT14=
EXTT15=
EXTT16=
EXTT17=
EXTT18=
EXTT19=
EXTT20=
EXTT21=
EXTT22=
EXTT23=
EXTT24=
PLAYORDER=
